<svg width="830" height="128" viewBox="0 0 830 128"
     xmlns="http://www.w3.org/2000/svg">
  <style>
    .cell { stroke: #1b1f230a; stroke-width: 1px; }
    .cell:hover { stroke: #1b1f23; stroke-width: 1px; }
    .text { font: 10px sans-serif; fill: #767676; }
  </style>
  <g transform="translate(20, 20)">
    <text x="35.0" y="-5" class="text">May</text>
    <text x="90.9" y="-5" class="text">Jun</text>
    <text x="146.8" y="-5" class="text">Jul</text>
    <text x="202.7" y="-5" class="text">Aug</text>
    <text x="258.6" y="-5" class="text">Sep</text>
    <text x="314.5" y="-5" class="text">Oct</text>
    <text x="370.4" y="-5" class="text">Nov</text>
    <text x="426.3" y="-5" class="text">Dec</text>
    <text x="482.2" y="-5" class="text">Jan</text>
    <text x="538.0999999999999" y="-5" class="text">Jan</text>
    <text x="594.0" y="-5" class="text">Mar</text>
    <text x="649.9" y="-5" class="text">Apr</text>
    <text x="-10" y="10" class="text" text-anchor="end">Mon</text>
    <text x="-10" y="36" class="text" text-anchor="end">Wed</text>
    <text x="-10" y="62" class="text" text-anchor="end">Fri</text>
    <rect x="30" y="5" width="11" height="11" rx="2" ry="2" fill="#ebedf0" class="cell" data-date="2024-04-18" />
    <rect x="30" y="18" width="11" height="11" rx="2" ry="2" fill="#ebedf0" class="cell" data-date="2024-04-19" />
    <rect x="30" y="31" width="11" height="11" rx="2" ry="2" fill="#ebedf0" class="cell" data-date="2024-04-20" />
    <rect x="30" y="44" width="11" height="11" rx="2" ry="2" fill="#ebedf0" class="cell" data-date="2024-04-21" />
    <rect x="30" y="57" width="11" height="11" rx="2" ry="2" fill="#ebedf0" class="cell" data-date="2024-04-22" />
    <rect x="30" y="70" width="11" height="11" rx="2" ry="2" fill="#ebedf0" class="cell" data-date="2024-04-23" />
    <rect x="30" y="83" width="11" height="11" rx="2" ry="2" fill="#ebedf0" class="cell" data-date="2024-04-24" />
    <rect x="43" y="5" width="11" height="11" rx="2" ry="2" fill="#ebedf0" class="cell" data-date="2024-04-25" />
    <rect x="43" y="18" width="11" height="11" rx="2" ry="2" fill="#ebedf0" class="cell" data-date="2024-04-26" />
    <rect x="43" y="31" width="11" height="11" rx="2" ry="2" fill="#ebedf0" class="cell" data-date="2024-04-27" />
    <rect x="43" y="44" width="11" height="11" rx="2" ry="2" fill="#ebedf0" class="cell" data-date="2024-04-28" />
    <rect x="43" y="57" width="11" height="11" rx="2" ry="2" fill="#ebedf0" class="cell" data-date="2024-04-29" />
    <rect x="43" y="70" width="11" height="11" rx="2" ry="2" fill="#ebedf0" class="cell" data-date="2024-04-30" />
    <rect x="43" y="83" width="11" height="11" rx="2" ry="2" fill="#ebedf0" class="cell" data-date="2024-05-01" />
    <rect x="56" y="5" width="11" height="11" rx="2" ry="2" fill="#ebedf0" class="cell" data-date="2024-05-02" />
    <rect x="56" y="18" width="11" height="11" rx="2" ry="2" fill="#ebedf0" class="cell" data-date="2024-05-03" />
    <rect x="56" y="31" width="11" height="11" rx="2" ry="2" fill="#ebedf0" class="cell" data-date="2024-05-04" />
    <rect x="56" y="44" width="11" height="11" rx="2" ry="2" fill="#ebedf0" class="cell" data-date="2024-05-05" />
    <rect x="56" y="57" width="11" height="11" rx="2" ry="2" fill="#ebedf0" class="cell" data-date="2024-05-06" />
    <rect x="56" y="70" width="11" height="11" rx="2" ry="2" fill="#ebedf0" class="cell" data-date="2024-05-07" />
    <rect x="56" y="83" width="11" height="11" rx="2" ry="2" fill="#ebedf0" class="cell" data-date="2024-05-08" />
    <rect x="69" y="5" width="11" height="11" rx="2" ry="2" fill="#ebedf0" class="cell" data-date="2024-05-09" />
    <rect x="69" y="18" width="11" height="11" rx="2" ry="2" fill="#ebedf0" class="cell" data-date="2024-05-10" />
    <rect x="69" y="31" width="11" height="11" rx="2" ry="2" fill="#ebedf0" class="cell" data-date="2024-05-11" />
    <rect x="69" y="44" width="11" height="11" rx="2" ry="2" fill="#ebedf0" class="cell" data-date="2024-05-12" />
    <rect x="69" y="57" width="11" height="11" rx="2" ry="2" fill="#ebedf0" class="cell" data-date="2024-05-13" />
    <rect x="69" y="70" width="11" height="11" rx="2" ry="2" fill="#ebedf0" class="cell" data-date="2024-05-14" />
    <rect x="69" y="83" width="11" height="11" rx="2" ry="2" fill="#ebedf0" class="cell" data-date="2024-05-15" />
    <rect x="82" y="5" width="11" height="11" rx="2" ry="2" fill="#ebedf0" class="cell" data-date="2024-05-16" />
    <rect x="82" y="18" width="11" height="11" rx="2" ry="2" fill="#ebedf0" class="cell" data-date="2024-05-17" />
    <rect x="82" y="31" width="11" height="11" rx="2" ry="2" fill="#ebedf0" class="cell" data-date="2024-05-18" />
    <rect x="82" y="44" width="11" height="11" rx="2" ry="2" fill="#ebedf0" class="cell" data-date="2024-05-19" />
    <rect x="82" y="57" width="11" height="11" rx="2" ry="2" fill="#ebedf0" class="cell" data-date="2024-05-20" />
    <rect x="82" y="70" width="11" height="11" rx="2" ry="2" fill="#ebedf0" class="cell" data-date="2024-05-21" />
    <rect x="82" y="83" width="11" height="11" rx="2" ry="2" fill="#ebedf0" class="cell" data-date="2024-05-22" />
    <rect x="95" y="5" width="11" height="11" rx="2" ry="2" fill="#ebedf0" class="cell" data-date="2024-05-23" />
    <rect x="95" y="18" width="11" height="11" rx="2" ry="2" fill="#ebedf0" class="cell" data-date="2024-05-24" />
    <rect x="95" y="31" width="11" height="11" rx="2" ry="2" fill="#ebedf0" class="cell" data-date="2024-05-25" />
    <rect x="95" y="44" width="11" height="11" rx="2" ry="2" fill="#ebedf0" class="cell" data-date="2024-05-26" />
    <rect x="95" y="57" width="11" height="11" rx="2" ry="2" fill="#ebedf0" class="cell" data-date="2024-05-27" />
    <rect x="95" y="70" width="11" height="11" rx="2" ry="2" fill="#ebedf0" class="cell" data-date="2024-05-28" />
    <rect x="95" y="83" width="11" height="11" rx="2" ry="2" fill="#ebedf0" class="cell" data-date="2024-05-29" />
    <rect x="108" y="5" width="11" height="11" rx="2" ry="2" fill="#ebedf0" class="cell" data-date="2024-05-30" />
    <rect x="108" y="18" width="11" height="11" rx="2" ry="2" fill="#ebedf0" class="cell" data-date="2024-05-31" />
    <rect x="108" y="31" width="11" height="11" rx="2" ry="2" fill="#ebedf0" class="cell" data-date="2024-06-01" />
    <rect x="108" y="44" width="11" height="11" rx="2" ry="2" fill="#ebedf0" class="cell" data-date="2024-06-02" />
    <rect x="108" y="57" width="11" height="11" rx="2" ry="2" fill="#ebedf0" class="cell" data-date="2024-06-03" />
    <rect x="108" y="70" width="11" height="11" rx="2" ry="2" fill="#ebedf0" class="cell" data-date="2024-06-04" />
    <rect x="108" y="83" width="11" height="11" rx="2" ry="2" fill="#ebedf0" class="cell" data-date="2024-06-05" />
    <rect x="121" y="5" width="11" height="11" rx="2" ry="2" fill="#ebedf0" class="cell" data-date="2024-06-06" />
    <rect x="121" y="18" width="11" height="11" rx="2" ry="2" fill="#ebedf0" class="cell" data-date="2024-06-07" />
    <rect x="121" y="31" width="11" height="11" rx="2" ry="2" fill="#ebedf0" class="cell" data-date="2024-06-08" />
    <rect x="121" y="44" width="11" height="11" rx="2" ry="2" fill="#ebedf0" class="cell" data-date="2024-06-09" />
    <rect x="121" y="57" width="11" height="11" rx="2" ry="2" fill="#ebedf0" class="cell" data-date="2024-06-10" />
    <rect x="121" y="70" width="11" height="11" rx="2" ry="2" fill="#ebedf0" class="cell" data-date="2024-06-11" />
    <rect x="121" y="83" width="11" height="11" rx="2" ry="2" fill="#ebedf0" class="cell" data-date="2024-06-12" />
    <rect x="134" y="5" width="11" height="11" rx="2" ry="2" fill="#ebedf0" class="cell" data-date="2024-06-13" />
    <rect x="134" y="18" width="11" height="11" rx="2" ry="2" fill="#ebedf0" class="cell" data-date="2024-06-14" />
    <rect x="134" y="31" width="11" height="11" rx="2" ry="2" fill="#ebedf0" class="cell" data-date="2024-06-15" />
    <rect x="134" y="44" width="11" height="11" rx="2" ry="2" fill="#ebedf0" class="cell" data-date="2024-06-16" />
    <rect x="134" y="57" width="11" height="11" rx="2" ry="2" fill="#ebedf0" class="cell" data-date="2024-06-17" />
    <rect x="134" y="70" width="11" height="11" rx="2" ry="2" fill="#ebedf0" class="cell" data-date="2024-06-18" />
    <rect x="134" y="83" width="11" height="11" rx="2" ry="2" fill="#ebedf0" class="cell" data-date="2024-06-19" />
    <rect x="147" y="5" width="11" height="11" rx="2" ry="2" fill="#ebedf0" class="cell" data-date="2024-06-20" />
    <rect x="147" y="18" width="11" height="11" rx="2" ry="2" fill="#ebedf0" class="cell" data-date="2024-06-21" />
    <rect x="147" y="31" width="11" height="11" rx="2" ry="2" fill="#ebedf0" class="cell" data-date="2024-06-22" />
    <rect x="147" y="44" width="11" height="11" rx="2" ry="2" fill="#ebedf0" class="cell" data-date="2024-06-23" />
    <rect x="147" y="57" width="11" height="11" rx="2" ry="2" fill="#ebedf0" class="cell" data-date="2024-06-24" />
    <rect x="147" y="70" width="11" height="11" rx="2" ry="2" fill="#ebedf0" class="cell" data-date="2024-06-25" />
    <rect x="147" y="83" width="11" height="11" rx="2" ry="2" fill="#ebedf0" class="cell" data-date="2024-06-26" />
    <rect x="160" y="5" width="11" height="11" rx="2" ry="2" fill="#ebedf0" class="cell" data-date="2024-06-27" />
    <rect x="160" y="18" width="11" height="11" rx="2" ry="2" fill="#ebedf0" class="cell" data-date="2024-06-28" />
    <rect x="160" y="31" width="11" height="11" rx="2" ry="2" fill="#ebedf0" class="cell" data-date="2024-06-29" />
    <rect x="160" y="44" width="11" height="11" rx="2" ry="2" fill="#ebedf0" class="cell" data-date="2024-06-30" />
    <rect x="160" y="57" width="11" height="11" rx="2" ry="2" fill="#ebedf0" class="cell" data-date="2024-07-01" />
    <rect x="160" y="70" width="11" height="11" rx="2" ry="2" fill="#ebedf0" class="cell" data-date="2024-07-02" />
    <rect x="160" y="83" width="11" height="11" rx="2" ry="2" fill="#ebedf0" class="cell" data-date="2024-07-03" />
    <rect x="173" y="5" width="11" height="11" rx="2" ry="2" fill="#ebedf0" class="cell" data-date="2024-07-04" />
    <rect x="173" y="18" width="11" height="11" rx="2" ry="2" fill="#ebedf0" class="cell" data-date="2024-07-05" />
    <rect x="173" y="31" width="11" height="11" rx="2" ry="2" fill="#ebedf0" class="cell" data-date="2024-07-06" />
    <rect x="173" y="44" width="11" height="11" rx="2" ry="2" fill="#ebedf0" class="cell" data-date="2024-07-07" />
    <rect x="173" y="57" width="11" height="11" rx="2" ry="2" fill="#ebedf0" class="cell" data-date="2024-07-08" />
    <rect x="173" y="70" width="11" height="11" rx="2" ry="2" fill="#ebedf0" class="cell" data-date="2024-07-09" />
    <rect x="173" y="83" width="11" height="11" rx="2" ry="2" fill="#ebedf0" class="cell" data-date="2024-07-10" />
    <rect x="186" y="5" width="11" height="11" rx="2" ry="2" fill="#ebedf0" class="cell" data-date="2024-07-11" />
    <rect x="186" y="18" width="11" height="11" rx="2" ry="2" fill="#ebedf0" class="cell" data-date="2024-07-12" />
    <rect x="186" y="31" width="11" height="11" rx="2" ry="2" fill="#ebedf0" class="cell" data-date="2024-07-13" />
    <rect x="186" y="44" width="11" height="11" rx="2" ry="2" fill="#ebedf0" class="cell" data-date="2024-07-14" />
    <rect x="186" y="57" width="11" height="11" rx="2" ry="2" fill="#ebedf0" class="cell" data-date="2024-07-15" />
    <rect x="186" y="70" width="11" height="11" rx="2" ry="2" fill="#ebedf0" class="cell" data-date="2024-07-16" />
    <rect x="186" y="83" width="11" height="11" rx="2" ry="2" fill="#ebedf0" class="cell" data-date="2024-07-17" />
    <rect x="199" y="5" width="11" height="11" rx="2" ry="2" fill="#ebedf0" class="cell" data-date="2024-07-18" />
    <rect x="199" y="18" width="11" height="11" rx="2" ry="2" fill="#ebedf0" class="cell" data-date="2024-07-19" />
    <rect x="199" y="31" width="11" height="11" rx="2" ry="2" fill="#ebedf0" class="cell" data-date="2024-07-20" />
    <rect x="199" y="44" width="11" height="11" rx="2" ry="2" fill="#ebedf0" class="cell" data-date="2024-07-21" />
    <rect x="199" y="57" width="11" height="11" rx="2" ry="2" fill="#ebedf0" class="cell" data-date="2024-07-22" />
    <rect x="199" y="70" width="11" height="11" rx="2" ry="2" fill="#ebedf0" class="cell" data-date="2024-07-23" />
    <rect x="199" y="83" width="11" height="11" rx="2" ry="2" fill="#ebedf0" class="cell" data-date="2024-07-24" />
    <rect x="212" y="5" width="11" height="11" rx="2" ry="2" fill="#ebedf0" class="cell" data-date="2024-07-25" />
    <rect x="212" y="18" width="11" height="11" rx="2" ry="2" fill="#ebedf0" class="cell" data-date="2024-07-26" />
    <rect x="212" y="31" width="11" height="11" rx="2" ry="2" fill="#ebedf0" class="cell" data-date="2024-07-27" />
    <rect x="212" y="44" width="11" height="11" rx="2" ry="2" fill="#ebedf0" class="cell" data-date="2024-07-28" />
    <rect x="212" y="57" width="11" height="11" rx="2" ry="2" fill="#ebedf0" class="cell" data-date="2024-07-29" />
    <rect x="212" y="70" width="11" height="11" rx="2" ry="2" fill="#ebedf0" class="cell" data-date="2024-07-30" />
    <rect x="212" y="83" width="11" height="11" rx="2" ry="2" fill="#ebedf0" class="cell" data-date="2024-07-31" />
    <rect x="225" y="5" width="11" height="11" rx="2" ry="2" fill="#ebedf0" class="cell" data-date="2024-08-01" />
    <rect x="225" y="18" width="11" height="11" rx="2" ry="2" fill="#ebedf0" class="cell" data-date="2024-08-02" />
    <rect x="225" y="31" width="11" height="11" rx="2" ry="2" fill="#ebedf0" class="cell" data-date="2024-08-03" />
    <rect x="225" y="44" width="11" height="11" rx="2" ry="2" fill="#ebedf0" class="cell" data-date="2024-08-04" />
    <rect x="225" y="57" width="11" height="11" rx="2" ry="2" fill="#ebedf0" class="cell" data-date="2024-08-05" />
    <rect x="225" y="70" width="11" height="11" rx="2" ry="2" fill="#ebedf0" class="cell" data-date="2024-08-06" />
    <rect x="225" y="83" width="11" height="11" rx="2" ry="2" fill="#ebedf0" class="cell" data-date="2024-08-07" />
    <rect x="238" y="5" width="11" height="11" rx="2" ry="2" fill="#ebedf0" class="cell" data-date="2024-08-08" />
    <rect x="238" y="18" width="11" height="11" rx="2" ry="2" fill="#ebedf0" class="cell" data-date="2024-08-09" />
    <rect x="238" y="31" width="11" height="11" rx="2" ry="2" fill="#ebedf0" class="cell" data-date="2024-08-10" />
    <rect x="238" y="44" width="11" height="11" rx="2" ry="2" fill="#ebedf0" class="cell" data-date="2024-08-11" />
    <rect x="238" y="57" width="11" height="11" rx="2" ry="2" fill="#ebedf0" class="cell" data-date="2024-08-12" />
    <rect x="238" y="70" width="11" height="11" rx="2" ry="2" fill="#ebedf0" class="cell" data-date="2024-08-13" />
    <rect x="238" y="83" width="11" height="11" rx="2" ry="2" fill="#ebedf0" class="cell" data-date="2024-08-14" />
    <rect x="251" y="5" width="11" height="11" rx="2" ry="2" fill="#ebedf0" class="cell" data-date="2024-08-15" />
    <rect x="251" y="18" width="11" height="11" rx="2" ry="2" fill="#ebedf0" class="cell" data-date="2024-08-16" />
    <rect x="251" y="31" width="11" height="11" rx="2" ry="2" fill="#ebedf0" class="cell" data-date="2024-08-17" />
    <rect x="251" y="44" width="11" height="11" rx="2" ry="2" fill="#ebedf0" class="cell" data-date="2024-08-18" />
    <rect x="251" y="57" width="11" height="11" rx="2" ry="2" fill="#ebedf0" class="cell" data-date="2024-08-19" />
    <rect x="251" y="70" width="11" height="11" rx="2" ry="2" fill="#ebedf0" class="cell" data-date="2024-08-20" />
    <rect x="251" y="83" width="11" height="11" rx="2" ry="2" fill="#ebedf0" class="cell" data-date="2024-08-21" />
    <rect x="264" y="5" width="11" height="11" rx="2" ry="2" fill="#ebedf0" class="cell" data-date="2024-08-22" />
    <rect x="264" y="18" width="11" height="11" rx="2" ry="2" fill="#ebedf0" class="cell" data-date="2024-08-23" />
    <rect x="264" y="31" width="11" height="11" rx="2" ry="2" fill="#ebedf0" class="cell" data-date="2024-08-24" />
    <rect x="264" y="44" width="11" height="11" rx="2" ry="2" fill="#ebedf0" class="cell" data-date="2024-08-25" />
    <rect x="264" y="57" width="11" height="11" rx="2" ry="2" fill="#ebedf0" class="cell" data-date="2024-08-26" />
    <rect x="264" y="70" width="11" height="11" rx="2" ry="2" fill="#ebedf0" class="cell" data-date="2024-08-27" />
    <rect x="264" y="83" width="11" height="11" rx="2" ry="2" fill="#ebedf0" class="cell" data-date="2024-08-28" />
    <rect x="277" y="5" width="11" height="11" rx="2" ry="2" fill="#ebedf0" class="cell" data-date="2024-08-29" />
    <rect x="277" y="18" width="11" height="11" rx="2" ry="2" fill="#ebedf0" class="cell" data-date="2024-08-30" />
    <rect x="277" y="31" width="11" height="11" rx="2" ry="2" fill="#ebedf0" class="cell" data-date="2024-08-31" />
    <rect x="277" y="44" width="11" height="11" rx="2" ry="2" fill="#ebedf0" class="cell" data-date="2024-09-01" />
    <rect x="277" y="57" width="11" height="11" rx="2" ry="2" fill="#ebedf0" class="cell" data-date="2024-09-02" />
    <rect x="277" y="70" width="11" height="11" rx="2" ry="2" fill="#ebedf0" class="cell" data-date="2024-09-03" />
    <rect x="277" y="83" width="11" height="11" rx="2" ry="2" fill="#ebedf0" class="cell" data-date="2024-09-04" />
    <rect x="290" y="5" width="11" height="11" rx="2" ry="2" fill="#ebedf0" class="cell" data-date="2024-09-05" />
    <rect x="290" y="18" width="11" height="11" rx="2" ry="2" fill="#ebedf0" class="cell" data-date="2024-09-06" />
    <rect x="290" y="31" width="11" height="11" rx="2" ry="2" fill="#ebedf0" class="cell" data-date="2024-09-07" />
    <rect x="290" y="44" width="11" height="11" rx="2" ry="2" fill="#ebedf0" class="cell" data-date="2024-09-08" />
    <rect x="290" y="57" width="11" height="11" rx="2" ry="2" fill="#ebedf0" class="cell" data-date="2024-09-09" />
    <rect x="290" y="70" width="11" height="11" rx="2" ry="2" fill="#ebedf0" class="cell" data-date="2024-09-10" />
    <rect x="290" y="83" width="11" height="11" rx="2" ry="2" fill="#ebedf0" class="cell" data-date="2024-09-11" />
    <rect x="303" y="5" width="11" height="11" rx="2" ry="2" fill="#ebedf0" class="cell" data-date="2024-09-12" />
    <rect x="303" y="18" width="11" height="11" rx="2" ry="2" fill="#ebedf0" class="cell" data-date="2024-09-13" />
    <rect x="303" y="31" width="11" height="11" rx="2" ry="2" fill="#ebedf0" class="cell" data-date="2024-09-14" />
    <rect x="303" y="44" width="11" height="11" rx="2" ry="2" fill="#ebedf0" class="cell" data-date="2024-09-15" />
    <rect x="303" y="57" width="11" height="11" rx="2" ry="2" fill="#ebedf0" class="cell" data-date="2024-09-16" />
    <rect x="303" y="70" width="11" height="11" rx="2" ry="2" fill="#ebedf0" class="cell" data-date="2024-09-17" />
    <rect x="303" y="83" width="11" height="11" rx="2" ry="2" fill="#ebedf0" class="cell" data-date="2024-09-18" />
    <rect x="316" y="5" width="11" height="11" rx="2" ry="2" fill="#ebedf0" class="cell" data-date="2024-09-19" />
    <rect x="316" y="18" width="11" height="11" rx="2" ry="2" fill="#ebedf0" class="cell" data-date="2024-09-20" />
    <rect x="316" y="31" width="11" height="11" rx="2" ry="2" fill="#ebedf0" class="cell" data-date="2024-09-21" />
    <rect x="316" y="44" width="11" height="11" rx="2" ry="2" fill="#ebedf0" class="cell" data-date="2024-09-22" />
    <rect x="316" y="57" width="11" height="11" rx="2" ry="2" fill="#ebedf0" class="cell" data-date="2024-09-23" />
    <rect x="316" y="70" width="11" height="11" rx="2" ry="2" fill="#ebedf0" class="cell" data-date="2024-09-24" />
    <rect x="316" y="83" width="11" height="11" rx="2" ry="2" fill="#ebedf0" class="cell" data-date="2024-09-25" />
    <rect x="329" y="5" width="11" height="11" rx="2" ry="2" fill="#ebedf0" class="cell" data-date="2024-09-26" />
    <rect x="329" y="18" width="11" height="11" rx="2" ry="2" fill="#ebedf0" class="cell" data-date="2024-09-27" />
    <rect x="329" y="31" width="11" height="11" rx="2" ry="2" fill="#ebedf0" class="cell" data-date="2024-09-28" />
    <rect x="329" y="44" width="11" height="11" rx="2" ry="2" fill="#ebedf0" class="cell" data-date="2024-09-29" />
    <rect x="329" y="57" width="11" height="11" rx="2" ry="2" fill="#ebedf0" class="cell" data-date="2024-09-30" />
    <rect x="329" y="70" width="11" height="11" rx="2" ry="2" fill="#ebedf0" class="cell" data-date="2024-10-01" />
    <rect x="329" y="83" width="11" height="11" rx="2" ry="2" fill="#ebedf0" class="cell" data-date="2024-10-02" />
    <rect x="342" y="5" width="11" height="11" rx="2" ry="2" fill="#ebedf0" class="cell" data-date="2024-10-03" />
    <rect x="342" y="18" width="11" height="11" rx="2" ry="2" fill="#ebedf0" class="cell" data-date="2024-10-04" />
    <rect x="342" y="31" width="11" height="11" rx="2" ry="2" fill="#ebedf0" class="cell" data-date="2024-10-05" />
    <rect x="342" y="44" width="11" height="11" rx="2" ry="2" fill="#ebedf0" class="cell" data-date="2024-10-06" />
    <rect x="342" y="57" width="11" height="11" rx="2" ry="2" fill="#ebedf0" class="cell" data-date="2024-10-07" />
    <rect x="342" y="70" width="11" height="11" rx="2" ry="2" fill="#ebedf0" class="cell" data-date="2024-10-08" />
    <rect x="342" y="83" width="11" height="11" rx="2" ry="2" fill="#ebedf0" class="cell" data-date="2024-10-09" />
    <rect x="355" y="5" width="11" height="11" rx="2" ry="2" fill="#ebedf0" class="cell" data-date="2024-10-10" />
    <rect x="355" y="18" width="11" height="11" rx="2" ry="2" fill="#ebedf0" class="cell" data-date="2024-10-11" />
    <rect x="355" y="31" width="11" height="11" rx="2" ry="2" fill="#ebedf0" class="cell" data-date="2024-10-12" />
    <rect x="355" y="44" width="11" height="11" rx="2" ry="2" fill="#ebedf0" class="cell" data-date="2024-10-13" />
    <rect x="355" y="57" width="11" height="11" rx="2" ry="2" fill="#ebedf0" class="cell" data-date="2024-10-14" />
    <rect x="355" y="70" width="11" height="11" rx="2" ry="2" fill="#ebedf0" class="cell" data-date="2024-10-15" />
    <rect x="355" y="83" width="11" height="11" rx="2" ry="2" fill="#ebedf0" class="cell" data-date="2024-10-16" />
    <rect x="368" y="5" width="11" height="11" rx="2" ry="2" fill="#ebedf0" class="cell" data-date="2024-10-17" />
    <rect x="368" y="18" width="11" height="11" rx="2" ry="2" fill="#ebedf0" class="cell" data-date="2024-10-18" />
    <rect x="368" y="31" width="11" height="11" rx="2" ry="2" fill="#ebedf0" class="cell" data-date="2024-10-19" />
    <rect x="368" y="44" width="11" height="11" rx="2" ry="2" fill="#ebedf0" class="cell" data-date="2024-10-20" />
    <rect x="368" y="57" width="11" height="11" rx="2" ry="2" fill="#ebedf0" class="cell" data-date="2024-10-21" />
    <rect x="368" y="70" width="11" height="11" rx="2" ry="2" fill="#ebedf0" class="cell" data-date="2024-10-22" />
    <rect x="368" y="83" width="11" height="11" rx="2" ry="2" fill="#ebedf0" class="cell" data-date="2024-10-23" />
    <rect x="381" y="5" width="11" height="11" rx="2" ry="2" fill="#ebedf0" class="cell" data-date="2024-10-24" />
    <rect x="381" y="18" width="11" height="11" rx="2" ry="2" fill="#ebedf0" class="cell" data-date="2024-10-25" />
    <rect x="381" y="31" width="11" height="11" rx="2" ry="2" fill="#ebedf0" class="cell" data-date="2024-10-26" />
    <rect x="381" y="44" width="11" height="11" rx="2" ry="2" fill="#ebedf0" class="cell" data-date="2024-10-27" />
    <rect x="381" y="57" width="11" height="11" rx="2" ry="2" fill="#ebedf0" class="cell" data-date="2024-10-28" />
    <rect x="381" y="70" width="11" height="11" rx="2" ry="2" fill="#ebedf0" class="cell" data-date="2024-10-29" />
    <rect x="381" y="83" width="11" height="11" rx="2" ry="2" fill="#ebedf0" class="cell" data-date="2024-10-30" />
    <rect x="394" y="5" width="11" height="11" rx="2" ry="2" fill="#ebedf0" class="cell" data-date="2024-10-31" />
    <rect x="394" y="18" width="11" height="11" rx="2" ry="2" fill="#ebedf0" class="cell" data-date="2024-11-01" />
    <rect x="394" y="31" width="11" height="11" rx="2" ry="2" fill="#ebedf0" class="cell" data-date="2024-11-02" />
    <rect x="394" y="44" width="11" height="11" rx="2" ry="2" fill="#ebedf0" class="cell" data-date="2024-11-03" />
    <rect x="394" y="57" width="11" height="11" rx="2" ry="2" fill="#ebedf0" class="cell" data-date="2024-11-04" />
    <rect x="394" y="70" width="11" height="11" rx="2" ry="2" fill="#ebedf0" class="cell" data-date="2024-11-05" />
    <rect x="394" y="83" width="11" height="11" rx="2" ry="2" fill="#ebedf0" class="cell" data-date="2024-11-06" />
    <rect x="407" y="5" width="11" height="11" rx="2" ry="2" fill="#ebedf0" class="cell" data-date="2024-11-07" />
    <rect x="407" y="18" width="11" height="11" rx="2" ry="2" fill="#ebedf0" class="cell" data-date="2024-11-08" />
    <rect x="407" y="31" width="11" height="11" rx="2" ry="2" fill="#ebedf0" class="cell" data-date="2024-11-09" />
    <rect x="407" y="44" width="11" height="11" rx="2" ry="2" fill="#ebedf0" class="cell" data-date="2024-11-10" />
    <rect x="407" y="57" width="11" height="11" rx="2" ry="2" fill="#ebedf0" class="cell" data-date="2024-11-11" />
    <rect x="407" y="70" width="11" height="11" rx="2" ry="2" fill="#ebedf0" class="cell" data-date="2024-11-12" />
    <rect x="407" y="83" width="11" height="11" rx="2" ry="2" fill="#ebedf0" class="cell" data-date="2024-11-13" />
    <rect x="420" y="5" width="11" height="11" rx="2" ry="2" fill="#ebedf0" class="cell" data-date="2024-11-14" />
    <rect x="420" y="18" width="11" height="11" rx="2" ry="2" fill="#ebedf0" class="cell" data-date="2024-11-15" />
    <rect x="420" y="31" width="11" height="11" rx="2" ry="2" fill="#ebedf0" class="cell" data-date="2024-11-16" />
    <rect x="420" y="44" width="11" height="11" rx="2" ry="2" fill="#ebedf0" class="cell" data-date="2024-11-17" />
    <rect x="420" y="57" width="11" height="11" rx="2" ry="2" fill="#ebedf0" class="cell" data-date="2024-11-18" />
    <rect x="420" y="70" width="11" height="11" rx="2" ry="2" fill="#ebedf0" class="cell" data-date="2024-11-19" />
    <rect x="420" y="83" width="11" height="11" rx="2" ry="2" fill="#ebedf0" class="cell" data-date="2024-11-20" />
    <rect x="433" y="5" width="11" height="11" rx="2" ry="2" fill="#ebedf0" class="cell" data-date="2024-11-21" />
    <rect x="433" y="18" width="11" height="11" rx="2" ry="2" fill="#ebedf0" class="cell" data-date="2024-11-22" />
    <rect x="433" y="31" width="11" height="11" rx="2" ry="2" fill="#ebedf0" class="cell" data-date="2024-11-23" />
    <rect x="433" y="44" width="11" height="11" rx="2" ry="2" fill="#ebedf0" class="cell" data-date="2024-11-24" />
    <rect x="433" y="57" width="11" height="11" rx="2" ry="2" fill="#ebedf0" class="cell" data-date="2024-11-25" />
    <rect x="433" y="70" width="11" height="11" rx="2" ry="2" fill="#ebedf0" class="cell" data-date="2024-11-26" />
    <rect x="433" y="83" width="11" height="11" rx="2" ry="2" fill="#ebedf0" class="cell" data-date="2024-11-27" />
    <rect x="446" y="5" width="11" height="11" rx="2" ry="2" fill="#ebedf0" class="cell" data-date="2024-11-28" />
    <rect x="446" y="18" width="11" height="11" rx="2" ry="2" fill="#ebedf0" class="cell" data-date="2024-11-29" />
    <rect x="446" y="31" width="11" height="11" rx="2" ry="2" fill="#ebedf0" class="cell" data-date="2024-11-30" />
    <rect x="446" y="44" width="11" height="11" rx="2" ry="2" fill="#ebedf0" class="cell" data-date="2024-12-01" />
    <rect x="446" y="57" width="11" height="11" rx="2" ry="2" fill="#ebedf0" class="cell" data-date="2024-12-02" />
    <rect x="446" y="70" width="11" height="11" rx="2" ry="2" fill="#ebedf0" class="cell" data-date="2024-12-03" />
    <rect x="446" y="83" width="11" height="11" rx="2" ry="2" fill="#ebedf0" class="cell" data-date="2024-12-04" />
    <rect x="459" y="5" width="11" height="11" rx="2" ry="2" fill="#ebedf0" class="cell" data-date="2024-12-05" />
    <rect x="459" y="18" width="11" height="11" rx="2" ry="2" fill="#ebedf0" class="cell" data-date="2024-12-06" />
    <rect x="459" y="31" width="11" height="11" rx="2" ry="2" fill="#ebedf0" class="cell" data-date="2024-12-07" />
    <rect x="459" y="44" width="11" height="11" rx="2" ry="2" fill="#ebedf0" class="cell" data-date="2024-12-08" />
    <rect x="459" y="57" width="11" height="11" rx="2" ry="2" fill="#ebedf0" class="cell" data-date="2024-12-09" />
    <rect x="459" y="70" width="11" height="11" rx="2" ry="2" fill="#ebedf0" class="cell" data-date="2024-12-10" />
    <rect x="459" y="83" width="11" height="11" rx="2" ry="2" fill="#ebedf0" class="cell" data-date="2024-12-11" />
    <rect x="472" y="5" width="11" height="11" rx="2" ry="2" fill="#ebedf0" class="cell" data-date="2024-12-12" />
    <rect x="472" y="18" width="11" height="11" rx="2" ry="2" fill="#ebedf0" class="cell" data-date="2024-12-13" />
    <rect x="472" y="31" width="11" height="11" rx="2" ry="2" fill="#ebedf0" class="cell" data-date="2024-12-14" />
    <rect x="472" y="44" width="11" height="11" rx="2" ry="2" fill="#ebedf0" class="cell" data-date="2024-12-15" />
    <rect x="472" y="57" width="11" height="11" rx="2" ry="2" fill="#ebedf0" class="cell" data-date="2024-12-16" />
    <rect x="472" y="70" width="11" height="11" rx="2" ry="2" fill="#ebedf0" class="cell" data-date="2024-12-17" />
    <rect x="472" y="83" width="11" height="11" rx="2" ry="2" fill="#ebedf0" class="cell" data-date="2024-12-18" />
    <rect x="485" y="5" width="11" height="11" rx="2" ry="2" fill="#ebedf0" class="cell" data-date="2024-12-19" />
    <rect x="485" y="18" width="11" height="11" rx="2" ry="2" fill="#ebedf0" class="cell" data-date="2024-12-20" />
    <rect x="485" y="31" width="11" height="11" rx="2" ry="2" fill="#ebedf0" class="cell" data-date="2024-12-21" />
    <rect x="485" y="44" width="11" height="11" rx="2" ry="2" fill="#ebedf0" class="cell" data-date="2024-12-22" />
    <rect x="485" y="57" width="11" height="11" rx="2" ry="2" fill="#ebedf0" class="cell" data-date="2024-12-23" />
    <rect x="485" y="70" width="11" height="11" rx="2" ry="2" fill="#ebedf0" class="cell" data-date="2024-12-24" />
    <rect x="485" y="83" width="11" height="11" rx="2" ry="2" fill="#ebedf0" class="cell" data-date="2024-12-25" />
    <rect x="498" y="5" width="11" height="11" rx="2" ry="2" fill="#ebedf0" class="cell" data-date="2024-12-26" />
    <rect x="498" y="18" width="11" height="11" rx="2" ry="2" fill="#ebedf0" class="cell" data-date="2024-12-27" />
    <rect x="498" y="31" width="11" height="11" rx="2" ry="2" fill="#ebedf0" class="cell" data-date="2024-12-28" />
    <rect x="498" y="44" width="11" height="11" rx="2" ry="2" fill="#ebedf0" class="cell" data-date="2024-12-29" />
    <rect x="498" y="57" width="11" height="11" rx="2" ry="2" fill="#ebedf0" class="cell" data-date="2024-12-30" />
    <rect x="498" y="70" width="11" height="11" rx="2" ry="2" fill="#ebedf0" class="cell" data-date="2024-12-31" />
    <rect x="498" y="83" width="11" height="11" rx="2" ry="2" fill="#ebedf0" class="cell" data-date="2025-01-01" />
    <rect x="511" y="5" width="11" height="11" rx="2" ry="2" fill="#ebedf0" class="cell" data-date="2025-01-02" />
    <rect x="511" y="18" width="11" height="11" rx="2" ry="2" fill="#ebedf0" class="cell" data-date="2025-01-03" />
    <rect x="511" y="31" width="11" height="11" rx="2" ry="2" fill="#ebedf0" class="cell" data-date="2025-01-04" />
    <rect x="511" y="44" width="11" height="11" rx="2" ry="2" fill="#ebedf0" class="cell" data-date="2025-01-05" />
    <rect x="511" y="57" width="11" height="11" rx="2" ry="2" fill="#ebedf0" class="cell" data-date="2025-01-06" />
    <rect x="511" y="70" width="11" height="11" rx="2" ry="2" fill="#ebedf0" class="cell" data-date="2025-01-07" />
    <rect x="511" y="83" width="11" height="11" rx="2" ry="2" fill="#ebedf0" class="cell" data-date="2025-01-08" />
    <rect x="524" y="5" width="11" height="11" rx="2" ry="2" fill="#ebedf0" class="cell" data-date="2025-01-09" />
    <rect x="524" y="18" width="11" height="11" rx="2" ry="2" fill="#ebedf0" class="cell" data-date="2025-01-10" />
    <rect x="524" y="31" width="11" height="11" rx="2" ry="2" fill="#ebedf0" class="cell" data-date="2025-01-11" />
    <rect x="524" y="44" width="11" height="11" rx="2" ry="2" fill="#ebedf0" class="cell" data-date="2025-01-12" />
    <rect x="524" y="57" width="11" height="11" rx="2" ry="2" fill="#ebedf0" class="cell" data-date="2025-01-13" />
    <rect x="524" y="70" width="11" height="11" rx="2" ry="2" fill="#ebedf0" class="cell" data-date="2025-01-14" />
    <rect x="524" y="83" width="11" height="11" rx="2" ry="2" fill="#ebedf0" class="cell" data-date="2025-01-15" />
    <rect x="537" y="5" width="11" height="11" rx="2" ry="2" fill="#ebedf0" class="cell" data-date="2025-01-16" />
    <rect x="537" y="18" width="11" height="11" rx="2" ry="2" fill="#ebedf0" class="cell" data-date="2025-01-17" />
    <rect x="537" y="31" width="11" height="11" rx="2" ry="2" fill="#ebedf0" class="cell" data-date="2025-01-18" />
    <rect x="537" y="44" width="11" height="11" rx="2" ry="2" fill="#ebedf0" class="cell" data-date="2025-01-19" />
    <rect x="537" y="57" width="11" height="11" rx="2" ry="2" fill="#ebedf0" class="cell" data-date="2025-01-20" />
    <rect x="537" y="70" width="11" height="11" rx="2" ry="2" fill="#ebedf0" class="cell" data-date="2025-01-21" />
    <rect x="537" y="83" width="11" height="11" rx="2" ry="2" fill="#ebedf0" class="cell" data-date="2025-01-22" />
    <rect x="550" y="5" width="11" height="11" rx="2" ry="2" fill="#ebedf0" class="cell" data-date="2025-01-23" />
    <rect x="550" y="18" width="11" height="11" rx="2" ry="2" fill="#ebedf0" class="cell" data-date="2025-01-24" />
    <rect x="550" y="31" width="11" height="11" rx="2" ry="2" fill="#ebedf0" class="cell" data-date="2025-01-25" />
    <rect x="550" y="44" width="11" height="11" rx="2" ry="2" fill="#ebedf0" class="cell" data-date="2025-01-26" />
    <rect x="550" y="57" width="11" height="11" rx="2" ry="2" fill="#ebedf0" class="cell" data-date="2025-01-27" />
    <rect x="550" y="70" width="11" height="11" rx="2" ry="2" fill="#ebedf0" class="cell" data-date="2025-01-28" />
    <rect x="550" y="83" width="11" height="11" rx="2" ry="2" fill="#ebedf0" class="cell" data-date="2025-01-29" />
    <rect x="563" y="5" width="11" height="11" rx="2" ry="2" fill="#ebedf0" class="cell" data-date="2025-01-30" />
    <rect x="563" y="18" width="11" height="11" rx="2" ry="2" fill="#ebedf0" class="cell" data-date="2025-01-31" />
    <rect x="563" y="31" width="11" height="11" rx="2" ry="2" fill="#ebedf0" class="cell" data-date="2025-02-01" />
    <rect x="563" y="44" width="11" height="11" rx="2" ry="2" fill="#ebedf0" class="cell" data-date="2025-02-02" />
    <rect x="563" y="57" width="11" height="11" rx="2" ry="2" fill="#ebedf0" class="cell" data-date="2025-02-03" />
    <rect x="563" y="70" width="11" height="11" rx="2" ry="2" fill="#ebedf0" class="cell" data-date="2025-02-04" />
    <rect x="563" y="83" width="11" height="11" rx="2" ry="2" fill="#ebedf0" class="cell" data-date="2025-02-05" />
    <rect x="576" y="5" width="11" height="11" rx="2" ry="2" fill="#ebedf0" class="cell" data-date="2025-02-06" />
    <rect x="576" y="18" width="11" height="11" rx="2" ry="2" fill="#ebedf0" class="cell" data-date="2025-02-07" />
    <rect x="576" y="31" width="11" height="11" rx="2" ry="2" fill="#ebedf0" class="cell" data-date="2025-02-08" />
    <rect x="576" y="44" width="11" height="11" rx="2" ry="2" fill="#ebedf0" class="cell" data-date="2025-02-09" />
    <rect x="576" y="57" width="11" height="11" rx="2" ry="2" fill="#ebedf0" class="cell" data-date="2025-02-10" />
    <rect x="576" y="70" width="11" height="11" rx="2" ry="2" fill="#ebedf0" class="cell" data-date="2025-02-11" />
    <rect x="576" y="83" width="11" height="11" rx="2" ry="2" fill="#ebedf0" class="cell" data-date="2025-02-12" />
    <rect x="589" y="5" width="11" height="11" rx="2" ry="2" fill="#ebedf0" class="cell" data-date="2025-02-13" />
    <rect x="589" y="18" width="11" height="11" rx="2" ry="2" fill="#ebedf0" class="cell" data-date="2025-02-14" />
    <rect x="589" y="31" width="11" height="11" rx="2" ry="2" fill="#ebedf0" class="cell" data-date="2025-02-15" />
    <rect x="589" y="44" width="11" height="11" rx="2" ry="2" fill="#ebedf0" class="cell" data-date="2025-02-16" />
    <rect x="589" y="57" width="11" height="11" rx="2" ry="2" fill="#ebedf0" class="cell" data-date="2025-02-17" />
    <rect x="589" y="70" width="11" height="11" rx="2" ry="2" fill="#ebedf0" class="cell" data-date="2025-02-18" />
    <rect x="589" y="83" width="11" height="11" rx="2" ry="2" fill="#ebedf0" class="cell" data-date="2025-02-19" />
    <rect x="602" y="5" width="11" height="11" rx="2" ry="2" fill="#ebedf0" class="cell" data-date="2025-02-20" />
    <rect x="602" y="18" width="11" height="11" rx="2" ry="2" fill="#ebedf0" class="cell" data-date="2025-02-21" />
    <rect x="602" y="31" width="11" height="11" rx="2" ry="2" fill="#ebedf0" class="cell" data-date="2025-02-22" />
    <rect x="602" y="44" width="11" height="11" rx="2" ry="2" fill="#ebedf0" class="cell" data-date="2025-02-23" />
    <rect x="602" y="57" width="11" height="11" rx="2" ry="2" fill="#ebedf0" class="cell" data-date="2025-02-24" />
    <rect x="602" y="70" width="11" height="11" rx="2" ry="2" fill="#ebedf0" class="cell" data-date="2025-02-25" />
    <rect x="602" y="83" width="11" height="11" rx="2" ry="2" fill="#ebedf0" class="cell" data-date="2025-02-26" />
    <rect x="615" y="5" width="11" height="11" rx="2" ry="2" fill="#ebedf0" class="cell" data-date="2025-02-27" />
    <rect x="615" y="18" width="11" height="11" rx="2" ry="2" fill="#ebedf0" class="cell" data-date="2025-02-28" />
    <rect x="615" y="31" width="11" height="11" rx="2" ry="2" fill="#ebedf0" class="cell" data-date="2025-03-01" />
    <rect x="615" y="44" width="11" height="11" rx="2" ry="2" fill="#ebedf0" class="cell" data-date="2025-03-02" />
    <rect x="615" y="57" width="11" height="11" rx="2" ry="2" fill="#ebedf0" class="cell" data-date="2025-03-03" />
    <rect x="615" y="70" width="11" height="11" rx="2" ry="2" fill="#ebedf0" class="cell" data-date="2025-03-04" />
    <rect x="615" y="83" width="11" height="11" rx="2" ry="2" fill="#ebedf0" class="cell" data-date="2025-03-05" />
    <rect x="628" y="5" width="11" height="11" rx="2" ry="2" fill="#ebedf0" class="cell" data-date="2025-03-06" />
    <rect x="628" y="18" width="11" height="11" rx="2" ry="2" fill="#ebedf0" class="cell" data-date="2025-03-07" />
    <rect x="628" y="31" width="11" height="11" rx="2" ry="2" fill="#ebedf0" class="cell" data-date="2025-03-08" />
    <rect x="628" y="44" width="11" height="11" rx="2" ry="2" fill="#ebedf0" class="cell" data-date="2025-03-09" />
    <rect x="628" y="57" width="11" height="11" rx="2" ry="2" fill="#ebedf0" class="cell" data-date="2025-03-10" />
    <rect x="628" y="70" width="11" height="11" rx="2" ry="2" fill="#ebedf0" class="cell" data-date="2025-03-11" />
    <rect x="628" y="83" width="11" height="11" rx="2" ry="2" fill="#ebedf0" class="cell" data-date="2025-03-12" />
    <rect x="641" y="5" width="11" height="11" rx="2" ry="2" fill="#ebedf0" class="cell" data-date="2025-03-13" />
    <rect x="641" y="18" width="11" height="11" rx="2" ry="2" fill="#ebedf0" class="cell" data-date="2025-03-14" />
    <rect x="641" y="31" width="11" height="11" rx="2" ry="2" fill="#ebedf0" class="cell" data-date="2025-03-15" />
    <rect x="641" y="44" width="11" height="11" rx="2" ry="2" fill="#ebedf0" class="cell" data-date="2025-03-16" />
    <rect x="641" y="57" width="11" height="11" rx="2" ry="2" fill="#ebedf0" class="cell" data-date="2025-03-17" />
    <rect x="641" y="70" width="11" height="11" rx="2" ry="2" fill="#ebedf0" class="cell" data-date="2025-03-18" />
    <rect x="641" y="83" width="11" height="11" rx="2" ry="2" fill="#ebedf0" class="cell" data-date="2025-03-19" />
    <rect x="654" y="5" width="11" height="11" rx="2" ry="2" fill="#ebedf0" class="cell" data-date="2025-03-20" />
    <rect x="654" y="18" width="11" height="11" rx="2" ry="2" fill="#ebedf0" class="cell" data-date="2025-03-21" />
    <rect x="654" y="31" width="11" height="11" rx="2" ry="2" fill="#ebedf0" class="cell" data-date="2025-03-22" />
    <rect x="654" y="44" width="11" height="11" rx="2" ry="2" fill="#ebedf0" class="cell" data-date="2025-03-23" />
    <rect x="654" y="57" width="11" height="11" rx="2" ry="2" fill="#ebedf0" class="cell" data-date="2025-03-24" />
    <rect x="654" y="70" width="11" height="11" rx="2" ry="2" fill="#ebedf0" class="cell" data-date="2025-03-25" />
    <rect x="654" y="83" width="11" height="11" rx="2" ry="2" fill="#ebedf0" class="cell" data-date="2025-03-26" />
    <rect x="667" y="5" width="11" height="11" rx="2" ry="2" fill="#ebedf0" class="cell" data-date="2025-03-27" />
    <rect x="667" y="18" width="11" height="11" rx="2" ry="2" fill="#ebedf0" class="cell" data-date="2025-03-28" />
    <rect x="667" y="31" width="11" height="11" rx="2" ry="2" fill="#ebedf0" class="cell" data-date="2025-03-29" />
    <rect x="667" y="44" width="11" height="11" rx="2" ry="2" fill="#ebedf0" class="cell" data-date="2025-03-30" />
    <rect x="667" y="57" width="11" height="11" rx="2" ry="2" fill="#ebedf0" class="cell" data-date="2025-03-31" />
    <rect x="667" y="70" width="11" height="11" rx="2" ry="2" fill="#ebedf0" class="cell" data-date="2025-04-01" />
    <rect x="667" y="83" width="11" height="11" rx="2" ry="2" fill="#ebedf0" class="cell" data-date="2025-04-02" />
    <rect x="680" y="5" width="11" height="11" rx="2" ry="2" fill="#ebedf0" class="cell" data-date="2025-04-03" />
    <rect x="680" y="18" width="11" height="11" rx="2" ry="2" fill="#ebedf0" class="cell" data-date="2025-04-04" />
    <rect x="680" y="31" width="11" height="11" rx="2" ry="2" fill="#ebedf0" class="cell" data-date="2025-04-05" />
    <rect x="680" y="44" width="11" height="11" rx="2" ry="2" fill="#ebedf0" class="cell" data-date="2025-04-06" />
    <rect x="680" y="57" width="11" height="11" rx="2" ry="2" fill="#ebedf0" class="cell" data-date="2025-04-07" />
    <rect x="680" y="70" width="11" height="11" rx="2" ry="2" fill="#ebedf0" class="cell" data-date="2025-04-08" />
    <rect x="680" y="83" width="11" height="11" rx="2" ry="2" fill="#ebedf0" class="cell" data-date="2025-04-09" />
    <rect x="693" y="5" width="11" height="11" rx="2" ry="2" fill="#ebedf0" class="cell" data-date="2025-04-10" />
    <rect x="693" y="18" width="11" height="11" rx="2" ry="2" fill="#ebedf0" class="cell" data-date="2025-04-11" />
    <rect x="693" y="31" width="11" height="11" rx="2" ry="2" fill="#ebedf0" class="cell" data-date="2025-04-12" />
    <rect x="693" y="44" width="11" height="11" rx="2" ry="2" fill="#ebedf0" class="cell" data-date="2025-04-13" />
    <rect x="693" y="57" width="11" height="11" rx="2" ry="2" fill="#ebedf0" class="cell" data-date="2025-04-14" />
    <rect x="693" y="70" width="11" height="11" rx="2" ry="2" fill="#ebedf0" class="cell" data-date="2025-04-15" />
    <rect x="693" y="83" width="11" height="11" rx="2" ry="2" fill="#ffc0cb" class="cell" data-date="2025-04-16" />
  </g>
</svg>