<svg width="360" height="20" xmlns="http://www.w3.org/2000/svg"><rect x="0" y="0" width="10" height="10" fill="#eeeeee" /><rect x="12" y="0" width="10" height="10" fill="#eeeeee" /><rect x="24" y="0" width="10" height="10" fill="#eeeeee" /><rect x="36" y="0" width="10" height="10" fill="#eeeeee" /><rect x="48" y="0" width="10" height="10" fill="#eeeeee" /><rect x="60" y="0" width="10" height="10" fill="#eeeeee" /><rect x="72" y="0" width="10" height="10" fill="#eeeeee" /><rect x="84" y="0" width="10" height="10" fill="#eeeeee" /><rect x="96" y="0" width="10" height="10" fill="#eeeeee" /><rect x="108" y="0" width="10" height="10" fill="#eeeeee" /><rect x="120" y="0" width="10" height="10" fill="#eeeeee" /><rect x="132" y="0" width="10" height="10" fill="#eeeeee" /><rect x="144" y="0" width="10" height="10" fill="#eeeeee" /><rect x="156" y="0" width="10" height="10" fill="#eeeeee" /><rect x="168" y="0" width="10" height="10" fill="#eeeeee" /><rect x="180" y="0" width="10" height="10" fill="#eeeeee" /><rect x="192" y="0" width="10" height="10" fill="#eeeeee" /><rect x="204" y="0" width="10" height="10" fill="#eeeeee" /><rect x="216" y="0" width="10" height="10" fill="#eeeeee" /><rect x="228" y="0" width="10" height="10" fill="#eeeeee" /><rect x="240" y="0" width="10" height="10" fill="#eeeeee" /><rect x="252" y="0" width="10" height="10" fill="#eeeeee" /><rect x="264" y="0" width="10" height="10" fill="#eeeeee" /><rect x="276" y="0" width="10" height="10" fill="#eeeeee" /><rect x="288" y="0" width="10" height="10" fill="#eeeeee" /><rect x="300" y="0" width="10" height="10" fill="#eeeeee" /><rect x="312" y="0" width="10" height="10" fill="#eeeeee" /><rect x="324" y="0" width="10" height="10" fill="#eeeeee" /><rect x="336" y="0" width="10" height="10" fill="#eeeeee" /><rect x="348" y="0" width="10" height="10" fill="#00c853" /></svg>